<?xml version="1.0" standalone="no"?>
<!DOCTYPE svg PUBLIC "-//W3C//DTD SVG 20010904//EN"
 "http://www.w3.org/TR/2001/REC-SVG-20010904/DTD/svg10.dtd">
<svg version="1.0" xmlns="http://www.w3.org/2000/svg"
 width="500.000000pt" height="500.000000pt" viewBox="0 0 500.000000 500.000000"
 preserveAspectRatio="xMidYMid meet">
<metadata>
Created by potrace 1.11, written by Peter Selinger 2001-2013
</metadata>
<g transform="translate(0.000000,500.000000) scale(0.100000,-0.100000)"
fill="#000000" stroke="none">
<path d="M3475 4360 c-397 -56 -700 -330 -786 -710 -13 -61 -19 -124 -19 -223
0 -133 -1 -138 -22 -146 -70 -27 -77 -100 -15 -140 l37 -24 0 -293 0 -294 -22
-4 c-13 -3 -52 -10 -88 -16 -143 -26 -297 -80 -417 -147 -63 -35 -113 -71
-308 -223 -206 -161 -420 -234 -685 -234 -257 0 -465 69 -670 222 -103 76
-113 93 -42 68 23 -8 86 -21 141 -27 224 -28 451 33 644 172 37 27 69 49 71
49 2 0 7 -17 11 -37 15 -81 97 -254 153 -324 l20 -24 57 19 c89 31 91 34 49
86 -49 61 -120 211 -138 290 -8 36 -18 98 -22 138 -6 62 -11 76 -32 93 -39 30
-69 17 -141 -62 -190 -208 -458 -299 -723 -244 -111 23 -257 100 -351 185 -81
73 -90 77 -131 59 -48 -22 -50 -52 -12 -190 208 -759 797 -1380 1544 -1629
216 -71 494 -124 564 -107 44 11 48 40 48 325 0 147 5 301 10 342 29 226 128
462 271 652 l47 63 -34 21 c-33 20 -38 42 -5 25 9 -5 140 -43 291 -86 151 -43
297 -86 323 -96 26 -11 50 -19 52 -19 3 0 5 35 5 78 l0 77 -65 34 c-80 41
-177 113 -232 174 l-43 47 0 425 c0 411 1 425 19 425 18 0 19 -10 23 -142 3
-132 6 -147 30 -194 31 -59 73 -98 138 -128 38 -18 63 -21 165 -20 136 1 169
11 236 71 49 45 77 97 86 160 8 63 16 78 53 93 28 11 34 11 58 -7 20 -15 30
-35 39 -82 21 -104 66 -166 151 -208 53 -26 65 -28 177 -28 141 1 186 16 253
85 60 62 72 108 72 267 0 126 1 133 20 133 20 0 20 -7 20 -429 l0 -429 -62
-62 c-63 -62 -162 -133 -230 -166 l-38 -18 0 -78 c0 -43 2 -78 5 -78 2 0 26 9
53 19 27 11 170 54 318 96 148 41 279 80 291 85 13 5 25 6 28 0 3 -5 -3 -11
-12 -15 -10 -3 -26 -12 -36 -19 -16 -13 -14 -19 37 -87 30 -40 76 -111 102
-157 26 -46 58 -89 70 -94 36 -17 76 3 98 48 25 50 34 242 16 327 -27 134
-129 280 -252 361 -57 38 -176 85 -215 86 l-23 0 0 303 0 302 32 15 c59 28 58
110 -2 133 l-30 11 0 121 c0 145 -12 221 -51 340 -43 129 -101 225 -199 328
-96 101 -166 153 -284 207 -146 68 -345 101 -491 80z m745 -389 c0 -6 -45 -47
-100 -93 -55 -46 -100 -87 -100 -92 0 -20 64 -107 111 -151 51 -47 129 -90
187 -101 l32 -6 0 -124 0 -124 -274 0 -274 0 -16 25 -16 25 -185 0 -184 0 -19
-25 -20 -25 -276 0 -276 0 0 103 c0 103 12 201 32 269 l11 37 46 -33 c183
-132 473 -133 781 -1 150 64 376 199 494 294 42 34 46 36 46 22z m-570 -811
l0 -30 -65 0 c-49 0 -67 4 -71 15 -14 34 3 45 71 45 l65 0 0 -30z m-290 -159
c0 -141 -8 -164 -70 -196 -40 -21 -181 -20 -221 0 -57 30 -69 65 -69 203 l0
122 180 0 180 0 0 -129z m808 26 c3 -117 -8 -163 -48 -202 -29 -28 -37 -30
-123 -33 -75 -3 -98 0 -126 16 -58 31 -71 69 -71 205 l0 117 183 -2 182 -3 3
-98z"/>
<path d="M3126 3069 c-20 -16 -26 -29 -26 -59 0 -48 25 -79 71 -86 58 -10 98
36 90 104 -1 9 -6 10 -19 3 -24 -13 -62 12 -62 40 0 25 -21 24 -54 -2z"/>
<path d="M3925 3065 c-54 -54 -13 -145 65 -145 29 0 80 53 80 83 0 31 -8 39
-30 27 -22 -12 -60 14 -60 41 0 26 -26 24 -55 -6z"/>
<path d="M3220 2160 c-19 -19 -20 -33 -20 -264 l0 -245 26 -20 c15 -12 33 -21
40 -21 7 0 82 24 165 54 l153 54 155 -55 c234 -83 231 -87 231 238 0 214 -1
228 -21 253 -13 16 -30 26 -47 26 -15 0 -92 -23 -172 -52 l-144 -52 -151 52
c-82 29 -160 52 -172 52 -13 0 -32 -9 -43 -20z m205 -185 c38 -14 73 -29 78
-34 5 -5 7 -27 5 -51 l-3 -42 -77 -28 c-42 -15 -78 -27 -80 -25 -3 3 2 205 5
205 1 0 33 -11 72 -25z m395 -75 c0 -78 -3 -100 -14 -100 -7 0 -42 11 -77 24
l-64 24 -3 49 -3 49 73 26 c40 15 76 27 81 27 4 1 7 -44 7 -99z"/>
</g>
</svg>
